<?xml version="1.0" encoding="UTF-8" standalone="no"?>
<!DOCTYPE svg PUBLIC "-//W3C//DTD SVG 1.1//EN" "http://www.w3.org/Graphics/SVG/1.1/DTD/svg11.dtd">
<!-- Created with Vectornator (http://vectornator.io/) -->
<svg height="512.0px" stroke-miterlimit="10" style="fill-rule:nonzero;clip-rule:evenodd;stroke-linecap:round;stroke-linejoin:round;" version="1.1" viewBox="0 0 512 512" width="512.0px" xml:space="preserve" xmlns="http://www.w3.org/2000/svg" xmlns:xlink="http://www.w3.org/1999/xlink">
<defs/>
<g id="Слой-1">
<g/>
<path d="M71.3436 19.1379C42.5112 19.1379 19.1379 42.5112 19.1379 71.3436L19.1379 440.656C19.1379 469.489 42.5112 492.862 71.3436 492.862L440.656 492.862C469.489 492.862 492.862 469.489 492.862 440.656L492.862 204.246L307.174 373.591L151.971 203.377L354.002 19.1379L71.3436 19.1379Z" fill="#325646" fill-rule="nonzero" opacity="1" stroke="none"/>
<path d="M286.618 386.217C291.69 383.171 296.762 380.125 301.834 377.079C276.173 348.997 250.513 320.915 224.852 292.833C199.191 264.752 173.531 236.67 147.87 208.588C144.605 213.127 141.34 217.666 138.075 222.205C131.544 231.284 128.134 236.403 127.845 237.562C127.556 238.722 127.985 239.564 129.134 240.087C130.282 240.611 131.23 240.421 131.977 239.518C132.723 238.614 134.407 237.755 137.027 236.94C139.646 236.125 142.005 235.885 144.101 236.218C146.197 236.552 148.16 237.231 149.989 238.256C151.818 239.281 172.475 261.495 211.962 304.897C251.449 348.299 271.616 370.958 272.464 372.876C273.312 374.793 273.803 376.811 273.938 378.929C274.073 381.048 273.109 384.053 271.048 387.945C270.018 389.891 268.987 391.837 267.956 393.783C268.531 394.045 269.105 394.307 269.679 394.569C270.828 395.092 276.474 392.308 286.618 386.217ZM265.243 384.151C266.514 382.099 266.853 379.886 266.261 377.511C265.669 375.136 245.853 352.493 206.813 309.582C167.772 266.67 147.449 244.825 145.843 244.045C144.237 243.265 142.37 243.059 140.24 243.428C138.111 243.797 136.667 244.55 135.909 245.687C135.152 246.825 156.2 270.7 199.055 317.311C220.483 340.617 241.91 363.923 263.338 387.229C263.973 386.203 264.608 385.177 265.243 384.151Z" fill="none" opacity="1" stroke="#ffffff" stroke-linecap="butt" stroke-linejoin="miter" stroke-width="5.07642"/>
<path d="M194.903 341.179L46.3153 474.252L33.4388 459.874L182.027 326.801L194.903 341.179Z" fill="none" opacity="1" stroke="#ffffff" stroke-linecap="butt" stroke-linejoin="miter" stroke-width="5.07642"/>
<path d="M179.194 304.586C181.65 302.375 185.434 302.574 187.645 305.03L215.614 336.101C217.825 338.557 217.626 342.341 215.17 344.552L215.17 344.552C212.714 346.763 208.93 346.564 206.719 344.108L178.75 313.037C176.539 310.581 176.738 306.797 179.194 304.586L179.194 304.586Z" fill="none" opacity="1" stroke="#ffffff" stroke-linecap="butt" stroke-linejoin="miter" stroke-width="5.07642"/>
<path d="M355.569 82.6819L215.736 208.588L207.757 199.726L347.59 73.8204L355.569 82.6819Z" fill="#325646" fill-rule="nonzero" opacity="1" stroke="none"/>
<path d="M439.528 98.61L299.695 224.516L291.716 215.654L431.549 89.7485L439.528 98.61Z" fill="#325646" fill-rule="nonzero" opacity="1" stroke="none"/>
<path d="M439.528 195.37L299.695 321.276L291.716 312.414L431.549 186.509L439.528 195.37Z" fill="#325646" fill-rule="nonzero" opacity="1" stroke="none"/>
<path d="M278.05 300.583L271.612 283.238L254.267 276.8L271.612 270.361L278.05 253.016L284.489 270.361L301.834 276.8L284.489 283.238L278.05 300.583Z" fill="#325646" fill-rule="nonzero" opacity="1" stroke="none"/>
<path d="M384.714 79.6459L380.707 68.8492L369.91 64.8414L380.707 60.8336L384.714 50.0369L388.722 60.8336L399.519 64.8414L388.722 68.8492L384.714 79.6459Z" fill="#325646" fill-rule="nonzero" opacity="1" stroke="none"/>
<path d="M448.113 159.54L444.105 148.743L433.309 144.735L444.105 140.727L448.113 129.931L452.121 140.727L462.918 144.735L452.121 148.743L448.113 159.54Z" fill="#325646" fill-rule="nonzero" opacity="1" stroke="none"/>
</g>
</svg>
